<svg xmlns="http://www.w3.org/2000/svg" width="319.7400207519531" height="310.5935363769531" viewBox="-66.89273834228516 -53.3513069152832 319.7400207519531 310.5935363769531"><title>Neo4j Graph Visualization</title><desc>Created using Neo4j (http://www.neo4j.com/)</desc><g class="layer relationships"><g class="relationship" transform="translate(223.84726206056362 -24.351306742433763) rotate(519.7554766488412)"><path class="outline" fill="#A5ABB6" stroke="none" d="M 21.40063509461097,12.933012701892217 L 21.90063509461097,12.06698729810778 A 58.45386428413934 58.45386428413934 0 0 0 39.78915425027837,18.788109762068167 L 39.5951822498767,19.76911682782262 A 59.45386428413934 59.45386428413934 0 0 1 21.40063509461097,12.933012701892217 Z M 58.9983677881863,20.37502924255213 L 58.86598277593731,19.383830872632245 A 58.45386428413934 58.45386428413934 0 0 0 77.1390061388488,13.791941930895083 L 75.80403337593297,11.10533668965236 L 83.63024716223445,11.124773024298598 L 78.91896982273657,17.374082252552046 L 77.58399705982075,14.687477011309324 A 59.45386428413934 59.45386428413934 0 0 1 58.9983677881863,20.37502924255213"/><text text-anchor="middle" pointer-events="none" font-size="8px" fill="#000000" x="49.28748411076372" y="23.369596592316604" transform="rotate(180 49.28748411076372 20.369596592316604)" font-family="sans-serif">trek</text></g><g class="relationship" transform="translate(124.37800037183544 12.334039794682393) rotate(431.49153790028197)"><path class="outline" fill="#A5ABB6" stroke="none" d="M 25 0.5 L 44.14936028838886 0.5 L 44.14936028838886 -0.5 L 25 -0.5 Z M 63.48529778838886 0.5 L 82.63465807677773 0.5 L 82.63465807677773 3.5 L 89.63465807677773 0 L 82.63465807677773 -3.5 L 82.63465807677773 -0.5 L 63.48529778838886 -0.5 Z"/><text text-anchor="middle" pointer-events="none" font-size="8px" fill="#000000" x="53.81732903838886" y="3" font-family="sans-serif">trek</text></g><g class="relationship" transform="translate(160.7681664233294 121.03942442269629) rotate(466.55920661245034)"><path class="outline" fill="#A5ABB6" stroke="none" d="M 25 0.5 L 42.752693846808945 0.5 L 42.752693846808945 -0.5 L 25 -0.5 Z M 62.088631346808945 0.5 L 79.84132519361789 0.5 L 79.84132519361789 3.5 L 86.84132519361789 0 L 79.84132519361789 -3.5 L 79.84132519361789 -0.5 L 62.088631346808945 -0.5 Z"/><text text-anchor="middle" pointer-events="none" font-size="8px" fill="#000000" x="52.420662596808945" y="3" transform="rotate(180 52.420662596808945 0)" font-family="sans-serif">trek</text></g><g class="relationship" transform="translate(124.37800037183544 12.334039794682393) rotate(181.94453457569927)"><path class="outline" fill="#A5ABB6" stroke="none" d="M 24.018736134675446,-6.953439040707552 L 24.277555179777966,-5.987513214418485 A 114.32275773576146 114.32275773576146 0 0 1 42.5054106302608,-9.31705248981443 L 42.40603364036669,-10.312102344786325 A 115.32275773576146 115.32275773576146 0 0 0 24.018736134675446,-6.953439040707552 Z M 61.800949034486834,-10.609686906252051 L 61.73214659670406,-9.612056601702747 A 114.32275773576146 114.32275773576146 0 0 1 80.05357070047364,-6.843308704202574 L 79.36638184021453,-3.923073872834423 L 86.98198345037585,-5.7265738354926565 L 80.96982251415247,-10.736955146026776 L 80.28263365389336,-7.816720314658625 A 115.32275773576146 115.32275773576146 0 0 0 61.800949034486834,-10.609686906252051"/><text text-anchor="middle" pointer-events="none" font-size="8px" fill="#000000" x="52.10489436165655" y="-7.369453268149371" transform="rotate(180 52.10489436165655 -10.369453268149371)" font-family="sans-serif">trek</text></g><g class="relationship" transform="translate(13.124829453305372 8.556820288876551) rotate(476.60968442390123)"><path class="outline" fill="#A5ABB6" stroke="none" d="M 24.018736134675446,-6.953439040707552 L 24.277555179777966,-5.987513214418485 A 119.47185762191252 119.47185762191252 0 0 1 43.79514365220136,-9.512896718510959 L 43.69969018005402,-10.508330611170337 A 120.47185762191252 120.47185762191252 0 0 0 24.018736134675446,-6.953439040707552 Z M 63.0930187389593,-10.79951842788357 L 63.02749412923984,-9.80166747432331 A 119.47185762191252 119.47185762191252 0 0 1 82.64212658784787,-6.863848190650057 L 81.95301921524997,-3.944065488284824 L 89.56980412213306,-5.742561438315828 L 83.5609364179784,-10.7568917938037 L 82.8718290453805,-7.837109091438467 A 120.47185762191252 120.47185762191252 0 0 0 63.0930187389593,-10.79951842788357"/><text text-anchor="middle" pointer-events="none" font-size="8px" fill="#000000" x="53.39799149424424" y="-7.544896769373906" transform="rotate(180 53.39799149424424 -10.544896769373906)" font-family="sans-serif">trek</text></g><g class="relationship" transform="translate(-37.89273835826627 110.39355229341199) rotate(421.55006622944455)"><path class="outline" fill="#A5ABB6" stroke="none" d="M 25 0.5 L 44.32723284949598 0.5 L 44.32723284949598 -0.5 L 25 -0.5 Z M 63.66317034949598 0.5 L 82.99040319899196 0.5 L 82.99040319899196 3.5 L 89.99040319899196 0 L 82.99040319899196 -3.5 L 82.99040319899196 -0.5 L 63.66317034949598 -0.5 Z"/><text text-anchor="middle" pointer-events="none" font-size="8px" fill="#000000" x="53.99520159949598" y="3" font-family="sans-serif">trek</text></g><g class="relationship" transform="translate(16.88761453513533 211.49699320785925) rotate(368.50297453921377)"><path class="outline" fill="#A5ABB6" stroke="none" d="M 25 0.5 L 43.45699433742124 0.5 L 43.45699433742124 -0.5 L 25 -0.5 Z M 62.79293183742124 0.5 L 81.24992617484249 0.5 L 81.24992617484249 3.5 L 88.24992617484249 0 L 81.24992617484249 -3.5 L 81.24992617484249 -0.5 L 62.79293183742124 -0.5 Z"/><text text-anchor="middle" pointer-events="none" font-size="8px" fill="#000000" x="53.12496308742124" y="3" font-family="sans-serif">trek</text></g><g class="relationship" transform="translate(124.37800037183544 12.334039794682393) rotate(181.94453457569927)"><path class="outline" fill="#A5ABB6" stroke="none" d="M 24.018736134675446,6.953439040707552 L 24.277555179777966,5.987513214418485 A 114.32275773576146 114.32275773576146 0 0 0 29.177296396547796,7.1851973597697025 L 28.96133619524692,8.161599526632344 A 115.32275773576146 115.32275773576146 0 0 1 24.018736134675446,6.953439040707552 Z M 75.30529429835921,8.872674886769346 L 75.119391424123,7.890106761217382 A 114.32275773576146 114.32275773576146 0 0 0 80.05357070047364,6.843308704202574 L 79.36638184021453,3.923073872834423 L 86.98198345037585,5.7265738354926565 L 80.96982251415247,10.736955146026776 L 80.28263365389336,7.816720314658625 A 115.32275773576146 115.32275773576146 0 0 1 75.30529429835921,8.872674886769346"/><text text-anchor="middle" pointer-events="none" font-size="8px" fill="#000000" x="52.104894361656584" y="13.369453268149371" transform="rotate(180 52.104894361656584 10.369453268149371)" font-family="sans-serif">twowheeler</text></g><g class="relationship" transform="translate(223.84726206056362 -24.351306742433763) rotate(519.7554766488412)"><path class="outline" fill="#A5ABB6" stroke="none" d="M 25 0.5 L 38.503452711295246 0.5 L 38.503452711295246 -0.5 L 25 -0.5 Z M 60.515171461295246 0.5 L 74.01862417259049 0.5 L 74.01862417259049 3.5 L 81.01862417259049 0 L 74.01862417259049 -3.5 L 74.01862417259049 -0.5 L 60.515171461295246 -0.5 Z"/><text text-anchor="middle" pointer-events="none" font-size="8px" fill="#000000" x="49.509312086295246" y="3" transform="rotate(180 49.509312086295246 0)" font-family="sans-serif">road</text></g><g class="relationship" transform="translate(223.84726206056362 -24.351306742433763) rotate(519.7554766488412)"><path class="outline" fill="#F16667" stroke="none" d="M 21.40063509461097,-12.933012701892217 L 21.90063509461097,-12.06698729810778 A 58.45386428413934 58.45386428413934 0 0 1 22.812983821665412,-12.58288189847687 L 22.32859183557908,-13.457732973697873 A 59.45386428413934 59.45386428413934 0 0 0 21.40063509461097,-12.933012701892217 Z M 76.62510891078665,-15.153275888931333 L 76.19624626272986,-14.249906181058797 A 58.45386428413934 58.45386428413934 0 0 1 77.1390061388488,-13.791941930895083 L 75.80403337593297,-11.10533668965236 L 83.63024716223445,-11.124773024298598 L 78.91896982273657,-17.374082252552046 L 77.58399705982075,-14.687477011309324 A 59.45386428413934 59.45386428413934 0 0 0 76.62510891078665,-15.153275888931333"/><text text-anchor="middle" pointer-events="none" font-size="8px" fill="#000000" x="49.287484110763714" y="-17.369596592316604" transform="rotate(180 49.287484110763714 -20.369596592316604)" font-family="sans-serif">PublicTrans…</text></g><g class="relationship" transform="translate(13.124829453305372 8.556820288876551) rotate(476.60968442390123)"><path class="outline" fill="#A5ABB6" stroke="none" d="M 24.018736134675446,6.953439040707552 L 24.277555179777966,5.987513214418485 A 119.47185762191252 119.47185762191252 0 0 0 30.45034399063394,7.466933022501976 L 30.243192249729457,8.445241847076431 A 120.47185762191252 120.47185762191252 0 0 1 24.018736134675446,6.953439040707552 Z M 76.60539057212276,9.141363055280465 L 76.42770390148803,8.157275941718495 A 119.47185762191252 119.47185762191252 0 0 0 82.64212658784787,6.863848190650057 L 81.95301921524997,3.944065488284824 L 89.56980412213306,5.742561438315828 L 83.5609364179784,10.7568917938037 L 82.8718290453805,7.837109091438467 A 120.47185762191252 120.47185762191252 0 0 1 76.60539057212276,9.141363055280465"/><text text-anchor="middle" pointer-events="none" font-size="8px" fill="#000000" x="53.39799149424427" y="13.544896769373906" transform="rotate(180 53.39799149424427 10.544896769373906)" font-family="sans-serif">twowheeler</text></g></g><g class="layer nodes"><g class="node" transform="translate(223.84726206056362,-24.351306742433763)"><circle class="outline" cx="0" cy="0" r="25" fill="#D9C8AE" stroke="#c0a378" stroke-width="2px"/><text text-anchor="middle" pointer-events="none" font-family="sans-serif" dy="1.5625" font-size="25" fill="#604A0E"/><text text-anchor="middle" pointer-events="none" y="5" font-size="10px" fill="#604A0E" font-family="sans-serif"> Darjeeling</text></g><g class="node" transform="translate(128.8927188610552,228.24221293012874)"><circle class="outline" cx="0" cy="0" r="25" fill="#8DCC93" stroke="#5db665" stroke-width="2px"/><text text-anchor="middle" pointer-events="none" font-family="sans-serif" dy="1.5625" font-size="25" fill="#604A0E"/><text text-anchor="middle" pointer-events="none" y="5" font-size="10px" fill="#604A0E" font-family="sans-serif"> Sandak…</text></g><g class="node" transform="translate(124.37800037183544,12.334039794682393)"><circle class="outline" cx="0" cy="0" r="25" fill="#D9C8AE" stroke="#c0a378" stroke-width="2px"/><text text-anchor="middle" pointer-events="none" font-family="sans-serif" dy="1.5625" font-size="25" fill="#604A0E"/><text text-anchor="middle" pointer-events="none" y="5" font-size="10px" fill="#604A0E" font-family="sans-serif"> Rimbik</text></g><g class="node" transform="translate(160.7681664233294,121.03942442269629)"><circle class="outline" cx="0" cy="0" r="25" fill="#ECB5C9" stroke="#da7298" stroke-width="2px"/><text text-anchor="middle" pointer-events="none" font-family="sans-serif" dy="1.5625" font-size="25" fill="#604A0E"/><text text-anchor="middle" pointer-events="none" y="5" font-size="10px" fill="#604A0E" font-family="sans-serif"> BhikeBh…</text></g><g class="node" transform="translate(13.124829453305372,8.556820288876551)"><circle class="outline" cx="0" cy="0" r="25" fill="#ECB5C9" stroke="#da7298" stroke-width="2px"/><text text-anchor="middle" pointer-events="none" font-family="sans-serif" dy="1.5625" font-size="25" fill="#604A0E"/><text text-anchor="middle" pointer-events="none" y="5" font-size="10px" fill="#604A0E" font-family="sans-serif"> Sirikhola</text></g><g class="node" transform="translate(-37.89273835826627,110.39355229341199)"><circle class="outline" cx="0" cy="0" r="25" fill="#ECB5C9" stroke="#da7298" stroke-width="2px"/><text text-anchor="middle" pointer-events="none" font-family="sans-serif" dy="1.5625" font-size="25" fill="#604A0E"/><text text-anchor="middle" pointer-events="none" y="5" font-size="10px" fill="#604A0E" font-family="sans-serif"> Rammam</text></g><g class="node" transform="translate(16.88761453513533,211.49699320785925)"><circle class="outline" cx="0" cy="0" r="25" fill="#8DCC93" stroke="#5db665" stroke-width="2px"/><text text-anchor="middle" pointer-events="none" font-family="sans-serif" dy="1.5625" font-size="25" fill="#604A0E"/><text text-anchor="middle" pointer-events="none" y="5" font-size="10px" fill="#604A0E" font-family="sans-serif"> Sabargr…</text></g></g></svg>