<svg xmlns="http://www.w3.org/2000/svg" width="333.5091247558594" height="302.2400817871094" viewBox="-65.94235229492188 -37.49453353881836 333.5091247558594 302.2400817871094"><title>Neo4j Graph Visualization</title><desc>Created using Neo4j (http://www.neo4j.com/)</desc><g class="layer relationships"><g class="relationship" transform="translate(238.56673759184426 -8.494532215868807) rotate(517.4689553463578)"><path class="outline" fill="#A5ABB6" stroke="none" d="M 21.40063509461097,12.933012701892217 L 21.90063509461097,12.06698729810778 A 58.06907400910539 58.06907400910539 0 0 0 39.60411891007626,18.730521792342067 L 39.408988311174156,19.711299060314822 A 59.06907400910539 59.06907400910539 0 0 1 21.40063509461097,12.933012701892217 Z M 58.81203431897737,20.319222418790076 L 58.67868429865033,19.3281534140892 A 58.06907400910539 58.06907400910539 0 0 0 76.76459024503718,13.78594832416881 L 75.43017505485402,11.099066097459119 L 83.25638463905699,11.120126584859708 L 78.54381049861475,17.368457959781733 L 77.20939530843158,14.681575733072041 A 59.06907400910539 59.06907400910539 0 0 1 58.81203431897737,20.319222418790076"/><text text-anchor="middle" pointer-events="none" font-size="8px" fill="#000000" x="49.10102477529477" y="23.318041945866348" transform="rotate(180 49.10102477529477 20.318041945866348)" font-family="sans-serif">trek</text></g><g class="relationship" transform="translate(140.98349231355917 31.987730706401514) rotate(437.7149301818044)"><path class="outline" fill="#A5ABB6" stroke="none" d="M 25 0.5 L 43.46906669174157 0.5 L 43.46906669174157 -0.5 L 25 -0.5 Z M 62.80500419174157 0.5 L 81.27407088348313 0.5 L 81.27407088348313 3.5 L 88.27407088348313 0 L 81.27407088348313 -3.5 L 81.27407088348313 -0.5 L 62.80500419174157 -0.5 Z"/><text text-anchor="middle" pointer-events="none" font-size="8px" fill="#000000" x="53.13703544174157" y="3" font-family="sans-serif">trek</text></g><g class="relationship" transform="translate(165.08547106536906 142.66794463266598) rotate(483.78197592281305)"><path class="outline" fill="#A5ABB6" stroke="none" d="M 25 0.5 L 42.82465810118557 0.5 L 42.82465810118557 -0.5 L 25 -0.5 Z M 62.16059560118557 0.5 L 79.98525370237114 0.5 L 79.98525370237114 3.5 L 86.98525370237114 0 L 79.98525370237114 -3.5 L 79.98525370237114 -0.5 L 62.16059560118557 -0.5 Z"/><text text-anchor="middle" pointer-events="none" font-size="8px" fill="#000000" x="52.49262685118557" y="3" transform="rotate(180 52.49262685118557 0)" font-family="sans-serif">trek</text></g><g class="relationship" transform="translate(140.98349231355917 31.987730706401514) rotate(198.2770217835702)"><path class="outline" fill="#A5ABB6" stroke="none" d="M 24.018736134675446,-6.953439040707552 L 24.277555179777966,-5.987513214418485 A 114.84431057481117 114.84431057481117 0 0 1 42.63595119657457,-9.336964504640065 L 42.53698679228891,-10.33205547871448 A 115.84431057481117 115.84431057481117 0 0 0 24.018736134675446,-6.953439040707552 Z M 61.931738906849475,-10.628979776102568 L 61.863282468295935,-9.631325669700672 A 114.84431057481117 114.84431057481117 0 0 1 80.31560770585546,-6.845428761625208 L 79.62822081844392,-3.925240537038531 L 87.24394471112629,-5.7282240617627505 L 81.23212355573749,-10.739013061074111 L 80.54473666832595,-7.818824836487434 A 115.84431057481117 115.84431057481117 0 0 0 61.931738906849475,-10.628979776102568"/><text text-anchor="middle" pointer-events="none" font-size="8px" fill="#000000" x="52.235791140678046" y="-7.387223302062438" transform="rotate(180 52.235791140678046 -10.387223302062438)" font-family="sans-serif">trek</text></g><g class="relationship" transform="translate(35.03365052507819 -3.004697470527233) rotate(489.3950529998647)"><path class="outline" fill="#A5ABB6" stroke="none" d="M 24.018736134675446,-6.953439040707552 L 24.277555179777966,-5.987513214418485 A 118.48953735966388 118.48953735966388 0 0 1 43.54893378049924,-9.475657891885533 L 43.45275676295587,-10.471022137424043 A 119.48953735966388 119.48953735966388 0 0 0 24.018736134675446,-6.953439040707552 Z M 62.84638366326558,-10.763409667733782 L 62.78025670567567,-9.765598450378562 A 118.48953735966388 118.48953735966388 0 0 1 82.14803047506922,-6.859995986022709 L 81.45928292011884,-3.940128385334303 L 89.0758461358339,-5.739562957919878 L 83.06636054833639,-10.753152786940584 L 82.37761299338601,-7.833285186252177 A 119.48953735966388 119.48953735966388 0 0 0 62.84638366326558,-10.763409667733782"/><text text-anchor="middle" pointer-events="none" font-size="8px" fill="#000000" x="53.15116516049779" y="-7.51142543156422" transform="rotate(180 53.15116516049779 -10.51142543156422)" font-family="sans-serif">trek</text></g><g class="relationship" transform="translate(-36.942349111765225 84.63574530796056) rotate(432.5021081033613)"><path class="outline" fill="#A5ABB6" stroke="none" d="M 25 0.5 L 44.10258161764681 0.5 L 44.10258161764681 -0.5 L 25 -0.5 Z M 63.43851911764681 0.5 L 82.54110073529363 0.5 L 82.54110073529363 3.5 L 89.54110073529363 0 L 82.54110073529363 -3.5 L 82.54110073529363 -0.5 L 63.43851911764681 -0.5 Z"/><text text-anchor="middle" pointer-events="none" font-size="8px" fill="#000000" x="53.77055036764681" y="3" font-family="sans-serif">trek</text></g><g class="relationship" transform="translate(-2.5031951595878654 193.8768018421726) rotate(381.67952595335294)"><path class="outline" fill="#A5ABB6" stroke="none" d="M 25 0.5 L 43.50105403419519 0.5 L 43.50105403419519 -0.5 L 25 -0.5 Z M 62.83699153419519 0.5 L 81.33804556839038 0.5 L 81.33804556839038 3.5 L 88.33804556839038 0 L 81.33804556839038 -3.5 L 81.33804556839038 -0.5 L 62.83699153419519 -0.5 Z"/><text text-anchor="middle" pointer-events="none" font-size="8px" fill="#000000" x="53.16902278419519" y="3" font-family="sans-serif">trek</text></g><g class="relationship" transform="translate(140.98349231355917 31.987730706401514) rotate(198.2770217835702)"><path class="outline" fill="#A5ABB6" stroke="none" d="M 24.018736134675446,6.953439040707552 L 24.277555179777966,5.987513214418485 A 114.84431057481117 114.84431057481117 0 0 0 29.30605318718279,7.214142693450938 L 29.091019489236228,8.190749322932533 A 115.84431057481117 115.84431057481117 0 0 1 24.018736134675446,6.953439040707552 Z M 75.43695408422849,8.900283220820342 L 75.2519169080421,7.917551699280011 A 114.84431057481117 114.84431057481117 0 0 0 80.31560770585546,6.845428761625208 L 79.62822081844392,3.925240537038531 L 87.24394471112629,5.7282240617627505 L 81.23212355573749,10.739013061074111 L 80.54473666832595,7.818824836487434 A 115.84431057481117 115.84431057481117 0 0 1 75.43695408422849,8.900283220820342"/><text text-anchor="middle" pointer-events="none" font-size="8px" fill="#000000" x="52.235791140678074" y="13.387223302062438" transform="rotate(180 52.235791140678074 10.387223302062438)" font-family="sans-serif">twowheeler</text></g><g class="relationship" transform="translate(238.56673759184426 -8.494532215868807) rotate(517.4689553463578)"><path class="outline" fill="#A5ABB6" stroke="none" d="M 25 0.5 L 38.31767555581889 0.5 L 38.31767555581889 -0.5 L 25 -0.5 Z M 60.32939430581889 0.5 L 73.64706986163777 0.5 L 73.64706986163777 3.5 L 80.64706986163777 0 L 73.64706986163777 -3.5 L 73.64706986163777 -0.5 L 60.32939430581889 -0.5 Z"/><text text-anchor="middle" pointer-events="none" font-size="8px" fill="#000000" x="49.32353493081889" y="3" transform="rotate(180 49.32353493081889 0)" font-family="sans-serif">road</text></g><g class="relationship" transform="translate(238.56673759184426 -8.494532215868807) rotate(517.4689553463578)"><path class="outline" fill="#F16667" stroke="none" d="M 21.40063509461097,-12.933012701892217 L 21.90063509461097,-12.06698729810778 A 58.06907400910539 58.06907400910539 0 0 1 22.643499966833605,-12.488626228421495 L 22.156292746551532,-13.36191262159673 A 59.06907400910539 59.06907400910539 0 0 0 21.40063509461097,-12.933012701892217 Z M 76.4283701300416,-15.062329326331216 L 75.99678730165752,-14.16025601321082 A 58.06907400910539 58.06907400910539 0 0 1 76.76459024503718,-13.78594832416881 L 75.43017505485402,-11.099066097459119 L 83.25638463905699,-11.120126584859708 L 78.54381049861475,-17.368457959781733 L 77.20939530843158,-14.681575733072041 A 59.06907400910539 59.06907400910539 0 0 0 76.4283701300416,-15.062329326331216"/><text text-anchor="middle" pointer-events="none" font-size="8px" fill="#000000" x="49.10102477529476" y="-17.318041945866348" transform="rotate(180 49.10102477529476 -20.318041945866348)" font-family="sans-serif">PublicTrans…</text></g><g class="relationship" transform="translate(35.03365052507819 -3.004697470527233) rotate(489.3950529998647)"><path class="outline" fill="#A5ABB6" stroke="none" d="M 24.018736134675446,6.953439040707552 L 24.277555179777966,5.987513214418485 A 118.48953735966388 118.48953735966388 0 0 0 30.20716448681287,7.413856898954521 L 29.998388757256738,8.391820443647418 A 119.48953735966388 119.48953735966388 0 0 1 24.018736134675446,6.953439040707552 Z M 76.35731651799736,9.090749657117726 L 76.17811746093096,8.106936820269922 A 118.48953735966388 118.48953735966388 0 0 0 82.14803047506922,6.859995986022709 L 81.45928292011884,3.940128385334303 L 89.0758461358339,5.739562957919878 L 83.06636054833639,10.753152786940584 L 82.37761299338601,7.833285186252177 A 119.48953735966388 119.48953735966388 0 0 1 76.35731651799736,9.090749657117726"/><text text-anchor="middle" pointer-events="none" font-size="8px" fill="#000000" x="53.151165160497804" y="13.51142543156422" transform="rotate(180 53.151165160497804 10.51142543156422)" font-family="sans-serif">twowheeler</text></g></g><g class="layer nodes"><g class="node" transform="translate(238.56673759184426,-8.494532215868807)"><circle class="outline" cx="0" cy="0" r="25" fill="#D9C8AE" stroke="#c0a378" stroke-width="2px"/><text text-anchor="middle" pointer-events="none" font-family="sans-serif" dy="1.5625" font-size="25" fill="#604A0E"/><text text-anchor="middle" pointer-events="none" y="5" font-size="10px" fill="#604A0E" font-family="sans-serif"> Darjeeling</text></g><g class="node" transform="translate(102.81784265243182,235.74554397113624)"><circle class="outline" cx="0" cy="0" r="25" fill="#8DCC93" stroke="#5db665" stroke-width="2px"/><text text-anchor="middle" pointer-events="none" font-family="sans-serif" dy="1.5625" font-size="25" fill="#604A0E"/><text text-anchor="middle" pointer-events="none" y="5" font-size="10px" fill="#604A0E" font-family="sans-serif"> Sandak…</text></g><g class="node" transform="translate(140.98349231355917,31.987730706401514)"><circle class="outline" cx="0" cy="0" r="25" fill="#D9C8AE" stroke="#c0a378" stroke-width="2px"/><text text-anchor="middle" pointer-events="none" font-family="sans-serif" dy="1.5625" font-size="25" fill="#604A0E"/><text text-anchor="middle" pointer-events="none" y="5" font-size="10px" fill="#604A0E" font-family="sans-serif"> Rimbik</text></g><g class="node" transform="translate(165.08547106536906,142.66794463266598)"><circle class="outline" cx="0" cy="0" r="25" fill="#ECB5C9" stroke="#da7298" stroke-width="2px"/><text text-anchor="middle" pointer-events="none" font-family="sans-serif" dy="1.5625" font-size="25" fill="#604A0E"/><text text-anchor="middle" pointer-events="none" y="5" font-size="10px" fill="#604A0E" font-family="sans-serif"> BhikeBh…</text></g><g class="node" transform="translate(35.03365052507819,-3.004697470527233)"><circle class="outline" cx="0" cy="0" r="25" fill="#ECB5C9" stroke="#da7298" stroke-width="2px"/><text text-anchor="middle" pointer-events="none" font-family="sans-serif" dy="1.5625" font-size="25" fill="#604A0E"/><text text-anchor="middle" pointer-events="none" y="5" font-size="10px" fill="#604A0E" font-family="sans-serif"> Sirikhola</text></g><g class="node" transform="translate(-36.942349111765225,84.63574530796056)"><circle class="outline" cx="0" cy="0" r="25" fill="#ECB5C9" stroke="#da7298" stroke-width="2px"/><text text-anchor="middle" pointer-events="none" font-family="sans-serif" dy="1.5625" font-size="25" fill="#604A0E"/><text text-anchor="middle" pointer-events="none" y="5" font-size="10px" fill="#604A0E" font-family="sans-serif"> Rammam</text></g><g class="node" transform="translate(-2.5031951595878654,193.8768018421726)"><circle class="outline" cx="0" cy="0" r="25" fill="#8DCC93" stroke="#5db665" stroke-width="2px"/><text text-anchor="middle" pointer-events="none" font-family="sans-serif" dy="1.5625" font-size="25" fill="#604A0E"/><text text-anchor="middle" pointer-events="none" y="5" font-size="10px" fill="#604A0E" font-family="sans-serif"> Sabargr…</text></g></g></svg>