<svg xmlns="http://www.w3.org/2000/svg" width="162.3841094970703" height="200.3180389404297" viewBox="9.771514892578125 -6.458512783050537 162.3841094970703 200.3180389404297"><title>Neo4j Graph Visualization</title><desc>Created using Neo4j (http://www.neo4j.com/)</desc><g class="layer relationships"><g class="relationship" transform="translate(69.96444597845904 164.85952439878935) rotate(252.93797036707133)"><path class="outline" fill="#A5ABB6" stroke="none" d="M 24.018736134675446,-6.953439040707552 L 24.277555179777966,-5.987513214418485 A 104.32910005887486 104.32910005887486 0 0 1 26.50989039402727,-6.5593181995577226 L 26.272468401261914,-7.530724807189841 A 105.32910005887486 105.32910005887486 0 0 0 24.018736134675446,-6.953439040707552 Z M 72.99660415650965,-8.279361887503612 L 72.79042475394236,-7.3008476801683315 A 104.32910005887486 104.32910005887486 0 0 1 75.03993286961585,-6.800852992869859 L 74.3567096953686,-3.8796877982648854 L 81.969855519402,-5.693526452060432 L 75.95089710194553,-10.695739919009823 L 75.26767392769827,-7.774574724404849 A 105.32910005887486 105.32910005887486 0 0 0 72.99660415650965,-8.279361887503612"/><text text-anchor="middle" pointer-events="none" font-size="8px" fill="#000000" x="49.600505396271004" y="-7.028987807187562" transform="rotate(180 49.600505396271004 -10.028987807187562)" font-family="sans-serif">CHEAPE…</text></g><g class="relationship" transform="translate(38.771513319957265 63.22570421537423) rotate(349.0607320422703)"><path class="outline" fill="#A5ABB6" stroke="none" d="M 12.066987298107785,21.900635094610966 L 12.933012701892222,21.400635094610966 A 44.28103122179208 44.28103122179208 0 0 0 14.732512219438718,24.259728282650965 L 13.907124973075078,24.824295279153816 A 45.28103122179208 45.28103122179208 0 0 1 12.066987298107785,21.900635094610966 Z M 85.6149343731434,28.782785414541873 L 84.85670465087321,28.13079792366029 A 44.28103122179208 44.28103122179208 0 0 0 86.95997232057769,25.487149406719592 L 84.54278866267205,23.710291741076688 L 91.5088374833954,20.143197149213602 L 90.18288386445187,27.85629296091013 L 87.76570020654623,26.079435295267228 A 45.28103122179208 45.28103122179208 0 0 1 85.6149343731434,28.782785414541873"/><text text-anchor="middle" pointer-events="none" font-size="8px" fill="#000000" x="48.81321897011905" y="46.97307390959911" font-family="sans-serif">CHEAPEST_FLIGHT</text></g><g class="relationship" transform="translate(38.771513319957265 63.22570421537423) rotate(349.0607320422703)"><path class="outline" fill="#A5ABB6" stroke="none" d="M 21.40063509461097,12.933012701892217 L 21.90063509461097,12.06698729810778 A 58.76175110225019 58.76175110225019 0 0 0 22.437862877192604,12.373397725704116 L 21.947005351208514,13.244637583139927 A 59.76175110225019 59.76175110225019 0 0 1 21.40063509461097,12.933012701892217 Z M 77.3190793398829,14.969192021549645 L 76.8833898191793,14.06909500369597 A 58.76175110225019 58.76175110225019 0 0 0 77.43864410101253,13.796709756255494 L 76.10322779884545,11.110324955094946 L 83.92944468741499,11.128469184725724 L 79.21919917056864,17.37855615780289 L 77.88378286840157,14.692171356642342 A 59.76175110225019 59.76175110225019 0 0 1 77.3190793398829,14.969192021549645"/><text text-anchor="middle" pointer-events="none" font-size="8px" fill="#000000" x="49.43670734597486" y="23.41084808544158" font-family="sans-serif">CHEAPEST…</text></g><g class="relationship" transform="translate(38.771513319957265 63.22570421537423) rotate(349.0607320422703)"><path class="outline" fill="#A5ABB6" stroke="none" d="M 25 0.5 L 26.208773598543132 0.5 L 26.208773598543132 -0.5 L 25 -0.5 Z M 73.10721109854313 0.5 L 74.31598469708626 0.5 L 74.31598469708626 3.5 L 81.31598469708626 0 L 74.31598469708626 -3.5 L 74.31598469708626 -0.5 L 73.10721109854313 -0.5 Z"/><text text-anchor="middle" pointer-events="none" font-size="8px" fill="#000000" x="49.65799234854313" y="3" font-family="sans-serif">CHEAPE…</text></g><g class="relationship" transform="translate(38.771513319957265 63.22570421537423) rotate(432.93797036707133)"><path class="outline" fill="#A5ABB6" stroke="none" d="M 24.018736134675446,-6.953439040707552 L 24.277555179777966,-5.987513214418485 A 104.32910005887486 104.32910005887486 0 0 1 26.50989039402727,-6.5593181995577226 L 26.272468401261914,-7.530724807189841 A 105.32910005887486 105.32910005887486 0 0 0 24.018736134675446,-6.953439040707552 Z M 72.99660415650965,-8.279361887503612 L 72.79042475394236,-7.3008476801683315 A 104.32910005887486 104.32910005887486 0 0 1 75.03993286961585,-6.800852992869859 L 74.3567096953686,-3.8796877982648854 L 81.969855519402,-5.693526452060432 L 75.95089710194553,-10.695739919009823 L 75.26767392769827,-7.774574724404849 A 105.32910005887486 105.32910005887486 0 0 0 72.99660415650965,-8.279361887503612"/><text text-anchor="middle" pointer-events="none" font-size="8px" fill="#000000" x="49.600505396271004" y="-7.028987807187562" font-family="sans-serif">CHEAPE…</text></g><g class="relationship" transform="translate(38.771513319957265 63.22570421537423) rotate(349.0607320422703)"><path class="outline" fill="#A5ABB6" stroke="none" d="M 21.40063509461097,-12.933012701892217 L 21.90063509461097,-12.06698729810778 A 58.76175110225019 58.76175110225019 0 0 1 22.437862877192597,-12.373397725704109 L 21.947005351208507,-13.24463758313992 A 59.76175110225019 59.76175110225019 0 0 0 21.40063509461097,-12.933012701892217 Z M 77.3190793398829,-14.969192021549638 L 76.88338981917931,-14.069095003695963 A 58.76175110225019 58.76175110225019 0 0 1 77.43864410101253,-13.796709756255494 L 76.10322779884545,-11.110324955094946 L 83.92944468741499,-11.128469184725724 L 79.21919917056864,-17.37855615780289 L 77.88378286840157,-14.692171356642342 A 59.76175110225019 59.76175110225019 0 0 0 77.3190793398829,-14.969192021549638"/><text text-anchor="middle" pointer-events="none" font-size="8px" fill="#000000" x="49.43670734597486" y="-17.41084808544158" font-family="sans-serif">CHEAPEST…</text></g><g class="relationship" transform="translate(38.771513319957265 63.22570421537423) rotate(349.0607320422703)"><path class="outline" fill="#A5ABB6" stroke="none" d="M 12.066987298107785,-21.900635094610966 L 12.933012701892222,-21.400635094610966 A 44.28103122179208 44.28103122179208 0 0 1 14.732512219438725,-24.259728282650972 L 13.907124973075085,-24.82429527915382 A 45.28103122179208 45.28103122179208 0 0 0 12.066987298107785,-21.900635094610966 Z M 85.6149343731434,-28.782785414541873 L 84.85670465087321,-28.13079792366029 A 44.28103122179208 44.28103122179208 0 0 1 86.95997232057769,-25.487149406719592 L 84.54278866267205,-23.710291741076688 L 91.5088374833954,-20.143197149213602 L 90.18288386445187,-27.85629296091013 L 87.76570020654623,-26.079435295267228 A 45.28103122179208 45.28103122179208 0 0 0 85.6149343731434,-28.782785414541873"/><text text-anchor="middle" pointer-events="none" font-size="8px" fill="#000000" x="48.81321897011905" y="-40.97307390959911" font-family="sans-serif">CHEAPEST_FLIGHT</text></g></g><g class="layer nodes"><g class="node" transform="translate(69.96444597845904,164.85952439878935)"><circle class="outline" cx="0" cy="0" r="25" fill="#FFC454" stroke="#d7a013" stroke-width="2px"/><text text-anchor="middle" pointer-events="none" font-family="sans-serif" dy="1.5625" font-size="25" fill="#604A0E"/><text text-anchor="middle" pointer-events="none" y="5" font-size="10px" fill="#604A0E" font-family="sans-serif"> MSN</text></g><g class="node" transform="translate(143.15561798510362,43.050291075444385)"><circle class="outline" cx="0" cy="0" r="25" fill="#FFC454" stroke="#d7a013" stroke-width="2px"/><text text-anchor="middle" pointer-events="none" font-family="sans-serif" dy="1.5625" font-size="25" fill="#604A0E"/><text text-anchor="middle" pointer-events="none" y="5" font-size="10px" fill="#604A0E" font-family="sans-serif"> GRR</text></g><g class="node" transform="translate(38.771513319957265,63.22570421537423)"><circle class="outline" cx="0" cy="0" r="25" fill="#FFC454" stroke="#d7a013" stroke-width="2px"/><text text-anchor="middle" pointer-events="none" font-family="sans-serif" dy="1.5625" font-size="25" fill="#604A0E"/><text text-anchor="middle" pointer-events="none" y="5" font-size="10px" fill="#604A0E" font-family="sans-serif"> ORD</text></g></g></svg>