<svg xmlns="http://www.w3.org/2000/svg" width="281.61260986328125" height="411.87432861328125" viewBox="-45.96112060546875 -102.69654083251953 281.61260986328125 411.87432861328125"><title>Neo4j Graph Visualization</title><desc>Created using Neo4j (http://www.neo4j.com/)</desc><g class="layer relationships"><g class="relationship" transform="translate(-16.961122862147047 -45.19946140224618) rotate(407.52981051283854)"><path class="outline" fill="#F16667" stroke="none" d="M 21.40063509461097,12.933012701892217 L 21.90063509461097,12.06698729810778 A 64.21340394714544 64.21340394714544 0 0 0 22.847033201902953,12.602756542886382 L 22.36177152831329,13.477125520003568 A 65.21340394714544 65.21340394714544 0 0 1 21.40063509461097,12.933012701892217 Z M 82.20737097560522,15.257450777455702 L 81.7749440173333,14.355781810617152 A 64.21340394714544 64.21340394714544 0 0 0 82.75151714429462,13.877218346870293 L 81.40861153693403,11.194569557013622 L 89.2348485885203,11.19088006133834 L 84.54205795410876,17.45408340001252 L 83.19915234674816,14.77143461015585 A 65.21340394714544 65.21340394714544 0 0 1 82.20737097560522,15.257450777455702"/><text text-anchor="middle" pointer-events="none" font-size="8px" fill="#000000" x="52.08305253182184" y="24.141336068340564" font-family="sans-serif">PublicTransport</text></g><g class="relationship" transform="translate(-16.961122862147047 -45.19946140224618) rotate(407.52981051283854)"><path class="outline" fill="#A5ABB6" stroke="none" d="M 25 0.5 L 41.289268210329624 0.5 L 41.289268210329624 -0.5 L 25 -0.5 Z M 63.300986960329624 0.5 L 79.59025517065925 0.5 L 79.59025517065925 3.5 L 86.59025517065925 0 L 79.59025517065925 -3.5 L 79.59025517065925 -0.5 L 63.300986960329624 -0.5 Z"/><text text-anchor="middle" pointer-events="none" font-size="8px" fill="#000000" x="52.295127585329624" y="3" font-family="sans-serif">road</text></g><g class="relationship" transform="translate(-16.961122862147047 -45.19946140224618) rotate(407.52981051283854)"><path class="outline" fill="#A5ABB6" stroke="none" d="M 21.40063509461097,-12.933012701892217 L 21.90063509461097,-12.06698729810778 A 64.21340394714544 64.21340394714544 0 0 1 42.56579127843496,-19.642403250745723 L 42.387611255473296,-20.626401156951516 A 65.21340394714544 65.21340394714544 0 0 0 21.40063509461097,-12.933012701892217 Z M 61.79195854468318,-21.203654119615535 L 61.67258705039944,-20.21080446012399 A 64.21340394714544 64.21340394714544 0 0 1 82.75151714429462,-13.877218346870293 L 81.40861153693403,-11.194569557013622 L 89.2348485885203,-11.19088006133834 L 84.54205795410876,-17.45408340001252 L 83.19915234674816,-14.77143461015585 A 65.21340394714544 65.21340394714544 0 0 0 61.79195854468318,-21.203654119615535"/><text text-anchor="middle" pointer-events="none" font-size="8px" fill="#000000" x="52.08305253182183" y="-18.141336068340564" font-family="sans-serif">trek</text></g><g class="relationship" transform="translate(58.38534466109499 37.112718017459834) rotate(372.40574538963176)"><path class="outline" fill="#A5ABB6" stroke="none" d="M 25 0.5 L 49.82394921147303 0.5 L 49.82394921147303 -0.5 L 25 -0.5 Z M 69.15988671147304 0.5 L 93.98383592294606 0.5 L 93.98383592294606 3.5 L 100.98383592294606 0 L 93.98383592294606 -3.5 L 93.98383592294606 -0.5 L 69.15988671147304 -0.5 Z"/><text text-anchor="middle" pointer-events="none" font-size="8px" fill="#000000" x="59.49191796147303" y="3" font-family="sans-serif">trek</text></g><g class="relationship" transform="translate(181.42755132283907 64.17823655430769) rotate(437.9486071597572)"><path class="outline" fill="#A5ABB6" stroke="none" d="M 25 0.5 L 47.2373487514869 0.5 L 47.2373487514869 -0.5 L 25 -0.5 Z M 66.5732862514869 0.5 L 88.8106350029738 0.5 L 88.8106350029738 3.5 L 95.8106350029738 0 L 88.8106350029738 -3.5 L 88.8106350029738 -0.5 L 66.5732862514869 -0.5 Z"/><text text-anchor="middle" pointer-events="none" font-size="8px" fill="#000000" x="56.9053175014869" y="3" font-family="sans-serif">trek</text></g><g class="relationship" transform="translate(93.33583462169763 190.70089406473645) rotate(355.7732348575805)"><path class="outline" fill="#A5ABB6" stroke="none" d="M 24.018736134675446,6.953439040707552 L 24.277555179777966,5.987513214418485 A 118.92095542207743 118.92095542207743 0 0 0 30.313947147822542,7.43720459110267 L 30.105887802275245,8.415320795206469 A 119.92095542207743 119.92095542207743 0 0 1 24.018736134675446,6.953439040707552 Z M 76.46626342382379,9.11301421208681 L 76.28773165643025,8.12908006386786 A 118.92095542207743 118.92095542207743 0 0 0 82.36501390424321,6.861691583597419 L 81.67610797082249,3.9418613462552354 L 89.29276878027844,5.74088277850608 L 83.28355514880418,10.75479856672033 L 82.59464921538346,7.834968329378147 A 119.92095542207743 119.92095542207743 0 0 1 76.46626342382379,9.11301421208681"/><text text-anchor="middle" pointer-events="none" font-size="8px" fill="#000000" x="53.259559295802056" y="13.526125403706615" font-family="sans-serif">twowheeler</text></g><g class="relationship" transform="translate(93.33583462169763 190.70089406473645) rotate(355.7732348575805)"><path class="outline" fill="#A5ABB6" stroke="none" d="M 24.018736134675446,-6.953439040707552 L 24.277555179777966,-5.987513214418485 A 118.92095542207743 118.92095542207743 0 0 1 43.65705576881435,-9.492019442780759 L 43.56119791520457,-10.487414475871304 A 119.92095542207743 119.92095542207743 0 0 0 24.018736134675446,-6.953439040707552 Z M 62.954693530301824,-10.779273936446131 L 62.88883239537587,-9.781445138051197 A 118.92095542207743 118.92095542207743 0 0 1 82.36501390424321,-6.861691583597419 L 81.67610797082249,-3.9418613462552354 L 89.29276878027844,-5.74088277850608 L 83.28355514880418,-10.75479856672033 L 82.59464921538346,-7.834968329378147 A 119.92095542207743 119.92095542207743 0 0 0 62.954693530301824,-10.779273936446131"/><text text-anchor="middle" pointer-events="none" font-size="8px" fill="#000000" x="53.25955929580203" y="-7.526125403706615" font-family="sans-serif">trek</text></g><g class="relationship" transform="translate(199.86965569691117 -48.50587540885129) rotate(459.2947377775777)"><path class="outline" fill="#A5ABB6" stroke="none" d="M 21.40063509461097,12.933012701892217 L 21.90063509461097,12.06698729810778 A 66.88762270157876 66.88762270157876 0 0 0 42.55316735059764,19.79376555883306 L 42.36193198330299,20.77530976787088 A 67.88762270157876 67.88762270157876 0 0 1 21.40063509461097,12.933012701892217 Z M 64.429175098228,21.41762387664035 L 64.29535499536827,20.42661823585388 A 66.88762270157876 66.88762270157876 0 0 0 85.36235009957797,13.914175671485905 L 84.0160066757085,11.23325057275535 L 91.84223256726084,11.219528532245567 L 87.15747466473726,17.488742469793312 L 85.8111312408678,14.807817371062756 A 67.88762270157876 67.88762270157876 0 0 1 64.429175098228,21.41762387664035"/><text text-anchor="middle" pointer-events="none" font-size="8px" fill="#000000" x="53.38381653877355" y="24.499701427973278" transform="rotate(180 53.38381653877355 21.499701427973278)" font-family="sans-serif">road</text></g><g class="relationship" transform="translate(199.86965569691117 -48.50587540885129) rotate(459.2947377775777)"><path class="outline" fill="#A5ABB6" stroke="none" d="M 25 0.5 L 30.359215653341046 0.5 L 30.359215653341046 -0.5 L 25 -0.5 Z M 76.82405940334104 0.5 L 82.18327505668209 0.5 L 82.18327505668209 3.5 L 89.18327505668209 0 L 82.18327505668209 -3.5 L 82.18327505668209 -0.5 L 76.82405940334104 -0.5 Z"/><text text-anchor="middle" pointer-events="none" font-size="8px" fill="#000000" x="53.591637528341046" y="3" transform="rotate(180 53.591637528341046 0)" font-family="sans-serif">twowheeler</text></g><g class="relationship" transform="translate(199.86965569691117 -48.50587540885129) rotate(459.2947377775777)"><path class="outline" fill="#A5ABB6" stroke="none" d="M 21.40063509461097,-12.933012701892217 L 21.90063509461097,-12.06698729810778 A 66.88762270157876 66.88762270157876 0 0 1 43.85905776871053,-20.034763770540422 L 43.68734604966899,-21.019911011080538 A 67.88762270157876 67.88762270157876 0 0 0 21.40063509461097,-12.933012701892217 Z M 63.091777752017855,-21.58471832254041 L 62.97765781382716,-20.591251342864 A 66.88762270157876 66.88762270157876 0 0 1 85.36235009957797,-13.914175671485905 L 84.0160066757085,-11.23325057275535 L 91.84223256726084,-11.219528532245567 L 87.15747466473726,-17.488742469793312 L 85.8111312408678,-14.807817371062756 A 67.88762270157876 67.88762270157876 0 0 0 63.091777752017855,-21.58471832254041"/><text text-anchor="middle" pointer-events="none" font-size="8px" fill="#000000" x="53.38381653877355" y="-18.499701427973278" transform="rotate(180 53.38381653877355 -21.499701427973278)" font-family="sans-serif">trek</text></g><g class="relationship" transform="translate(-16.961122862147047 -45.19946140224618) rotate(344.7973165238891)"><path class="outline" fill="#A5ABB6" stroke="none" d="M 24.018736134675446,-6.953439040707552 L 24.277555179777966,-5.987513214418485 A 109.04048186026073 109.04048186026073 0 0 1 39.86087595244889,-8.968066654245249 L 39.744970075986274,-9.961326855703774 A 110.04048186026073 110.04048186026073 0 0 0 24.018736134675446,-6.953439040707552 Z M 61.81725898774734,-10.307757533434057 L 61.73258151035124,-9.311349120772945 A 109.04048186026073 109.04048186026073 0 0 1 77.40176470871047,-6.82131237247444 L 76.71663046191979,-3.900594812717153 L 84.33096138927593,-5.709452056589051 L 78.31527703776472,-10.715602452150822 L 77.63014279097403,-7.794884892393535 A 110.04048186026073 110.04048186026073 0 0 0 61.81725898774734,-10.307757533434057"/><text text-anchor="middle" pointer-events="none" font-size="8px" fill="#000000" x="50.78025214488505" y="-7.1894878325817615" font-family="sans-serif">road</text></g><g class="relationship" transform="translate(-16.961122862147047 -45.19946140224618) rotate(344.7973165238891)"><path class="outline" fill="#A5ABB6" stroke="none" d="M 24.018736134675446,6.953439040707552 L 24.277555179777966,5.987513214418485 A 109.04048186026073 109.04048186026073 0 0 0 41.184593551730984,9.114346319561236 L 41.08082736482859,10.108948038067567 A 110.04048186026073 110.04048186026073 0 0 1 24.018736134675446,6.953439040707552 Z M 60.47742692222955,10.413383031520056 L 60.404925255433945,9.416014740309706 A 109.04048186026073 109.04048186026073 0 0 0 77.40176470871047,6.82131237247444 L 76.71663046191979,3.900594812717153 L 84.33096138927593,5.709452056589051 L 78.31527703776472,10.715602452150822 L 77.63014279097403,7.794884892393535 A 110.04048186026073 110.04048186026073 0 0 1 60.47742692222955,10.413383031520056"/><text text-anchor="middle" pointer-events="none" font-size="8px" fill="#000000" x="50.78025214488506" y="13.189487832581761" font-family="sans-serif">trek</text></g><g class="relationship" transform="translate(58.38534466109499 37.112718017459834) rotate(481.15061129029954)"><path class="outline" fill="#A5ABB6" stroke="none" d="M 24.018736134675446,-6.953439040707552 L 24.277555179777966,-5.987513214418485 A 138.6043763492545 138.6043763492545 0 0 1 35.21149231173187,-8.44815994831967 L 35.03155921107026,-9.431838797988775 A 139.6043763492545 139.6043763492545 0 0 0 24.018736134675446,-6.953439040707552 Z M 81.44244307487047,-10.07718327042275 L 81.28993040930702,-9.088881754263468 A 138.6043763492545 138.6043763492545 0 0 1 92.2880576888468,-6.933200911090827 L 91.5924725055692,-4.0149546478695965 L 99.21322983357594,-5.796543193979973 L 93.2155045998836,-10.824195928719135 L 92.519919416606,-7.905949665497904 A 139.6043763492545 139.6043763492545 0 0 0 81.44244307487047,-10.07718327042275"/><text text-anchor="middle" pointer-events="none" font-size="8px" fill="#000000" x="58.21694473278769" y="-8.196896866073132" transform="rotate(180 58.21694473278769 -11.196896866073132)" font-family="sans-serif">twowheeler</text></g><g class="relationship" transform="translate(-5.5164349151217325 142.83265424080702) rotate(440.0650058842522)"><path class="outline" fill="#A5ABB6" stroke="none" d="M 24.018736134675446,-6.953439040707552 L 24.277555179777966,-5.987513214418485 A 127.01602575741768 127.01602575741768 0 0 1 45.68839781089456,-9.797133423522084 L 45.59814680674151,-10.793052474574608 A 128.01602575741768 128.01602575741768 0 0 0 24.018736134675446,-6.953439040707552 Z M 64.98925529864867,-11.075335178144883 L 64.92803223244859,-10.077211069546635 A 127.01602575741768 127.01602575741768 0 0 1 86.44069446907059,-6.8924423487338675 L 85.74891626355553,-3.9732912881728772 L 93.36734331129874,-5.764818379292212 L 87.36306540975734,-10.784643762815188 L 86.67128720424228,-7.865492702254198 A 128.01602575741768 128.01602575741768 0 0 0 64.98925529864867,-11.075335178144883"/><text text-anchor="middle" pointer-events="none" font-size="8px" fill="#000000" x="55.29562587583009" y="-7.80197015921199" font-family="sans-serif">trek</text></g><g class="relationship" transform="translate(14.789328891772271 258.76133897024744) rotate(370.00655877708687)"><path class="outline" fill="#A5ABB6" stroke="none" d="M 25 0.5 L 48.45828813892782 0.5 L 48.45828813892782 -0.5 L 25 -0.5 Z M 67.79422563892783 0.5 L 91.25251377785564 0.5 L 91.25251377785564 3.5 L 98.25251377785564 0 L 91.25251377785564 -3.5 L 91.25251377785564 -0.5 L 67.79422563892783 -0.5 Z"/><text text-anchor="middle" pointer-events="none" font-size="8px" fill="#000000" x="58.12625688892782" y="3" font-family="sans-serif">trek</text></g><g class="relationship" transform="translate(136.16690924222104 280.1778078862673) rotate(305.76602485592014)"><path class="outline" fill="#A5ABB6" stroke="none" d="M 25 0.5 L 47.12919957657023 0.5 L 47.12919957657023 -0.5 L 25 -0.5 Z M 66.46513707657023 0.5 L 88.59433665314046 0.5 L 88.59433665314046 3.5 L 95.59433665314046 0 L 88.59433665314046 -3.5 L 88.59433665314046 -0.5 L 66.46513707657023 -0.5 Z"/><text text-anchor="middle" pointer-events="none" font-size="8px" fill="#000000" x="56.79716832657023" y="3" font-family="sans-serif">trek</text></g><g class="relationship" transform="translate(58.38534466109499 37.112718017459834) rotate(481.15061129029954)"><path class="outline" fill="#A5ABB6" stroke="none" d="M 24.018736134675446,6.953439040707552 L 24.277555179777966,5.987513214418485 A 138.6043763492545 138.6043763492545 0 0 0 48.60401516008732,10.22852113990561 L 48.52070615746002,11.225044902834156 A 139.6043763492545 139.6043763492545 0 0 1 24.018736134675446,6.953439040707552 Z M 67.90865185628735,11.494634760793048 L 67.85308308010976,10.49617989896197 A 138.6043763492545 138.6043763492545 0 0 0 92.2880576888468,6.933200911090827 L 91.5924725055692,4.0149546478695965 L 99.21322983357594,5.796543193979973 L 93.2155045998836,10.824195928719135 L 92.519919416606,7.905949665497904 A 139.6043763492545 139.6043763492545 0 0 1 67.90865185628735,11.494634760793048"/><text text-anchor="middle" pointer-events="none" font-size="8px" fill="#000000" x="58.2169447327877" y="14.196896866073132" transform="rotate(180 58.2169447327877 11.196896866073132)" font-family="sans-serif">trek</text></g><g class="relationship" transform="translate(-5.5164349151217325 142.83265424080702) rotate(440.0650058842522)"><path class="outline" fill="#A5ABB6" stroke="none" d="M 24.018736134675446,6.953439040707552 L 24.277555179777966,5.987513214418485 A 127.01602575741768 127.01602575741768 0 0 0 32.322429255732416,7.8650067544141535 L 32.126947683425016,8.845714129163738 A 128.01602575741768 128.01602575741768 0 0 1 24.018736134675446,6.953439040707552 Z M 78.51143018190854,9.520948199915523 L 78.34457834928445,8.53496621937532 A 127.01602575741768 127.01602575741768 0 0 0 86.44069446907059,6.8924423487338675 L 85.74891626355553,3.9732912881728772 L 93.36734331129874,5.764818379292212 L 87.36306540975734,10.784643762815188 L 86.67128720424228,7.865492702254198 A 128.01602575741768 128.01602575741768 0 0 1 78.51143018190854,9.520948199915523"/><text text-anchor="middle" pointer-events="none" font-size="8px" fill="#000000" x="55.29562587583013" y="13.80197015921199" font-family="sans-serif">twowheeler</text></g><g class="relationship" transform="translate(14.789328891772271 258.76133897024744) rotate(319.09111313386126)"><path class="outline" fill="#A5ABB6" stroke="none" d="M 21.40063509461097,12.933012701892217 L 21.90063509461097,12.06698729810778 A 56.2912676467723 56.2912676467723 0 0 0 26.02409268872299,14.225490386178102 L 25.597344860267373,15.129861046310559 A 57.2912676467723 57.2912676467723 0 0 1 21.40063509461097,12.933012701892217 Z M 71.15172044514799,16.579400429285123 L 70.78333181640834,15.64972854188865 A 56.2912676467723 56.2912676467723 0 0 0 75.0356758735629,13.757743306420066 L 73.70388456736735,11.069559548426206 L 81.53006985991449,11.098260884962796 L 76.81139761515693,17.341988317078545 L 75.4796063089614,14.653804559084685 A 57.2912676467723 57.2912676467723 0 0 1 71.15172044514799,16.579400429285123"/><text text-anchor="middle" pointer-events="none" font-size="8px" fill="#000000" x="48.24008599771403" y="23.07985806838822" font-family="sans-serif">twowheeler</text></g><g class="relationship" transform="translate(14.789328891772271 258.76133897024744) rotate(319.09111313386126)"><path class="outline" fill="#A5ABB6" stroke="none" d="M 25 0.5 L 37.459941213265004 0.5 L 37.459941213265004 -0.5 L 25 -0.5 Z M 59.471659963265004 0.5 L 71.93160117653001 0.5 L 71.93160117653001 3.5 L 78.93160117653001 0 L 71.93160117653001 -3.5 L 71.93160117653001 -0.5 L 59.471659963265004 -0.5 Z"/><text text-anchor="middle" pointer-events="none" font-size="8px" fill="#000000" x="48.465800588265004" y="3" font-family="sans-serif">road</text></g><g class="relationship" transform="translate(14.789328891772271 258.76133897024744) rotate(319.09111313386126)"><path class="outline" fill="#A5ABB6" stroke="none" d="M 21.40063509461097,-12.933012701892217 L 21.90063509461097,-12.06698729810778 A 56.2912676467723 56.2912676467723 0 0 1 38.750060160810406,-18.463511404075625 L 38.54938589587698,-19.44316942573085 A 57.2912676467723 57.2912676467723 0 0 0 21.40063509461097,-12.933012701892217 Z M 57.951659921012144,-20.060549423977 L 57.813673953381695,-19.07011524002681 A 56.2912676467723 56.2912676467723 0 0 1 75.0356758735629,-13.757743306420066 L 73.70388456736735,-11.069559548426206 L 81.53006985991449,-11.098260884962796 L 76.81139761515693,-17.341988317078545 L 75.4796063089614,-14.653804559084685 A 57.2912676467723 57.2912676467723 0 0 0 57.951659921012144,-20.060549423977"/><text text-anchor="middle" pointer-events="none" font-size="8px" fill="#000000" x="48.24008599771401" y="-17.07985806838822" font-family="sans-serif">trek</text></g><g class="relationship" transform="translate(58.38534466109499 37.112718017459834) rotate(284.91773979500545)"><path class="outline" fill="#A5ABB6" stroke="none" d="M 25 0.5 L 44.16912711426938 0.5 L 44.16912711426938 -0.5 L 25 -0.5 Z M 63.50506461426938 0.5 L 82.67419172853876 0.5 L 82.67419172853876 3.5 L 89.67419172853876 0 L 82.67419172853876 -3.5 L 82.67419172853876 -0.5 L 63.50506461426938 -0.5 Z"/><text text-anchor="middle" pointer-events="none" font-size="8px" fill="#000000" x="53.83709586426938" y="3" font-family="sans-serif">trek</text></g><g class="relationship" transform="translate(87.90614982052382 -73.69654292824231) rotate(372.6798373288526)"><path class="outline" fill="#A5ABB6" stroke="none" d="M 21.40063509461097,-12.933012701892217 L 21.90063509461097,-12.06698729810778 A 67.48432712370496 67.48432712370496 0 0 1 31.195919372637494,-16.524437863687574 L 30.83365926979891,-17.456514908728046 A 68.48432712370496 68.48432712370496 0 0 0 21.40063509461097,-12.933012701892217 Z M 76.71527555922934,-18.785596539520895 L 76.40757775758924,-17.834112402571748 A 67.48432712370496 67.48432712370496 0 0 1 85.94530236193319,-13.922209448048612 L 84.59821163744886,-11.241659769343089 L 92.42443339966013,-11.225756037369427 L 87.74142332791229,-17.49627568632264 L 86.39433260342796,-14.815726007617119 A 68.48432712370496 68.48432712370496 0 0 0 76.71527555922934,-18.785596539520895"/><text text-anchor="middle" pointer-events="none" font-size="8px" fill="#000000" x="53.67427964419927" y="-18.57966709003277" font-family="sans-serif">twowheeler</text></g><g class="relationship" transform="translate(87.90614982052382 -73.69654292824231) rotate(372.6798373288526)"><path class="outline" fill="#A5ABB6" stroke="none" d="M 25 0.5 L 42.87531431943641 0.5 L 42.87531431943641 -0.5 L 25 -0.5 Z M 64.88703306943641 0.5 L 82.76234738887283 0.5 L 82.76234738887283 3.5 L 89.76234738887283 0 L 82.76234738887283 -3.5 L 82.76234738887283 -0.5 L 64.88703306943641 -0.5 Z"/><text text-anchor="middle" pointer-events="none" font-size="8px" fill="#000000" x="53.88117369443641" y="3" font-family="sans-serif">road</text></g><g class="relationship" transform="translate(87.90614982052382 -73.69654292824231) rotate(372.6798373288526)"><path class="outline" fill="#A5ABB6" stroke="none" d="M 21.40063509461097,12.933012701892217 L 21.90063509461097,12.06698729810778 A 67.48432712370496 67.48432712370496 0 0 0 44.147942850618676,20.12198620720278 L 43.977609140618526,21.10737264268765 A 68.48432712370496 68.48432712370496 0 0 1 21.40063509461097,12.933012701892217 Z M 63.38202994239096,21.669472702134584 L 63.2690226075602,20.675878548430745 A 67.48432712370496 67.48432712370496 0 0 0 85.94530236193319,13.922209448048612 L 84.59821163744886,11.241659769343089 L 92.42443339966013,11.225756037369427 L 87.74142332791229,17.49627568632264 L 86.39433260342796,14.815726007617119 A 68.48432712370496 68.48432712370496 0 0 1 63.38202994239096,21.669472702134584"/><text text-anchor="middle" pointer-events="none" font-size="8px" fill="#000000" x="53.67427964419927" y="24.57966709003277" font-family="sans-serif">trek</text></g><g class="relationship" transform="translate(-5.5164349151217325 142.83265424080702) rotate(385.8381300881174)"><path class="outline" fill="#A5ABB6" stroke="none" d="M 24.018736134675446,-6.953439040707552 L 24.277555179777966,-5.987513214418485 A 111.36043746428456 111.36043746428456 0 0 1 41.76439582382319,-9.203613610255317 L 41.6626059808523,-10.198419534980317 A 112.36043746428456 112.36043746428456 0 0 0 24.018736134675446,-6.953439040707552 Z M 61.05845920913558,-10.499808732261911 L 60.98762732095267,-9.502320464853995 A 111.36043746428456 111.36043746428456 0 0 1 78.56595026345836,-6.831092283789725 L 77.87990250062133,-3.91058916495792 L 85.49479883453876,-5.717064690308613 L 79.48068061390775,-10.725096442232132 L 78.79463285107072,-7.804593323400327 A 112.36043746428456 112.36043746428456 0 0 0 61.05845920913558,-10.499808732261911"/><text text-anchor="middle" pointer-events="none" font-size="8px" fill="#000000" x="51.36178484360164" y="-7.268525876247068" font-family="sans-serif">trek</text></g><g class="relationship" transform="translate(-5.5164349151217325 142.83265424080702) rotate(385.8381300881174)"><path class="outline" fill="#A5ABB6" stroke="none" d="M 24.018736134675446,6.953439040707552 L 24.277555179777966,5.987513214418485 A 111.36043746428456 111.36043746428456 0 0 0 28.446850794934466,7.01892594303321 L 28.22547139814954,7.994113700687677 A 112.36043746428456 112.36043746428456 0 0 1 24.018736134675446,6.953439040707552 Z M 74.5575946166151,8.714061478226142 L 74.36662137163327,7.7324662359286265 A 111.36043746428456 111.36043746428456 0 0 0 78.56595026345836,6.831092283789725 L 77.87990250062133,3.91058916495792 L 85.49479883453876,5.717064690308613 L 79.48068061390775,10.725096442232132 L 78.79463285107072,7.804593323400327 A 112.36043746428456 112.36043746428456 0 0 1 74.5575946166151,8.714061478226142"/><text text-anchor="middle" pointer-events="none" font-size="8px" fill="#000000" x="51.36178484360165" y="13.268525876247068" font-family="sans-serif">twowheeler</text></g></g><g class="layer nodes"><g class="node" transform="translate(-16.961122862147047,-45.19946140224618)"><circle class="outline" cx="0" cy="0" r="25" fill="#D9C8AE" stroke="#c0a378" stroke-width="2px"/><text text-anchor="middle" pointer-events="none" font-family="sans-serif" dy="1.5625" font-size="25" fill="#604A0E"/><text text-anchor="middle" pointer-events="none" y="5" font-size="10px" fill="#604A0E" font-family="sans-serif"> Darjeeling</text></g><g class="node" transform="translate(206.65148061394012,182.32629164172457)"><circle class="outline" cx="0" cy="0" r="25" fill="#8DCC93" stroke="#5db665" stroke-width="2px"/><text text-anchor="middle" pointer-events="none" font-family="sans-serif" dy="1.5625" font-size="25" fill="#604A0E"/><text text-anchor="middle" pointer-events="none" y="5" font-size="10px" fill="#604A0E" font-family="sans-serif"> Sandak…</text></g><g class="node" transform="translate(93.33583462169763,190.70089406473645)"><circle class="outline" cx="0" cy="0" r="25" fill="#ECB5C9" stroke="#da7298" stroke-width="2px"/><text text-anchor="middle" pointer-events="none" font-family="sans-serif" dy="1.5625" font-size="25" fill="#604A0E"/><text text-anchor="middle" pointer-events="none" y="5" font-size="10px" fill="#604A0E" font-family="sans-serif"> Gurdum</text></g><g class="node" transform="translate(58.38534466109499,37.112718017459834)"><circle class="outline" cx="0" cy="0" r="25" fill="#D9C8AE" stroke="#c0a378" stroke-width="2px"/><text text-anchor="middle" pointer-events="none" font-family="sans-serif" dy="1.5625" font-size="25" fill="#604A0E"/><text text-anchor="middle" pointer-events="none" y="5" font-size="10px" fill="#604A0E" font-family="sans-serif"> Rimbik</text></g><g class="node" transform="translate(181.42755132283907,64.17823655430769)"><circle class="outline" cx="0" cy="0" r="25" fill="#ECB5C9" stroke="#da7298" stroke-width="2px"/><text text-anchor="middle" pointer-events="none" font-family="sans-serif" dy="1.5625" font-size="25" fill="#604A0E"/><text text-anchor="middle" pointer-events="none" y="5" font-size="10px" fill="#604A0E" font-family="sans-serif"> BhikeBh…</text></g><g class="node" transform="translate(199.86965569691117,-48.50587540885129)"><circle class="outline" cx="0" cy="0" r="25" fill="#ECB5C9" stroke="#da7298" stroke-width="2px"/><text text-anchor="middle" pointer-events="none" font-family="sans-serif" dy="1.5625" font-size="25" fill="#604A0E"/><text text-anchor="middle" pointer-events="none" y="5" font-size="10px" fill="#604A0E" font-family="sans-serif"> Gairibus</text></g><g class="node" transform="translate(87.90614982052382,-73.69654292824231)"><circle class="outline" cx="0" cy="0" r="25" fill="#ECB5C9" stroke="#da7298" stroke-width="2px"/><text text-anchor="middle" pointer-events="none" font-family="sans-serif" dy="1.5625" font-size="25" fill="#604A0E"/><text text-anchor="middle" pointer-events="none" y="5" font-size="10px" fill="#604A0E" font-family="sans-serif"> Tumbling</text></g><g class="node" transform="translate(-5.5164349151217325,142.83265424080702)"><circle class="outline" cx="0" cy="0" r="25" fill="#ECB5C9" stroke="#da7298" stroke-width="2px"/><text text-anchor="middle" pointer-events="none" font-family="sans-serif" dy="1.5625" font-size="25" fill="#604A0E"/><text text-anchor="middle" pointer-events="none" y="5" font-size="10px" fill="#604A0E" font-family="sans-serif"> Sirikhola</text></g><g class="node" transform="translate(14.789328891772271,258.76133897024744)"><circle class="outline" cx="0" cy="0" r="25" fill="#ECB5C9" stroke="#da7298" stroke-width="2px"/><text text-anchor="middle" pointer-events="none" font-family="sans-serif" dy="1.5625" font-size="25" fill="#604A0E"/><text text-anchor="middle" pointer-events="none" y="5" font-size="10px" fill="#604A0E" font-family="sans-serif"> Rammam</text></g><g class="node" transform="translate(136.16690924222104,280.1778078862673)"><circle class="outline" cx="0" cy="0" r="25" fill="#8DCC93" stroke="#5db665" stroke-width="2px"/><text text-anchor="middle" pointer-events="none" font-family="sans-serif" dy="1.5625" font-size="25" fill="#604A0E"/><text text-anchor="middle" pointer-events="none" y="5" font-size="10px" fill="#604A0E" font-family="sans-serif"> Sabargr…</text></g></g></svg>